<?xml version="1.0" encoding="utf-8"?>

<!DOCTYPE svg PUBLIC "-//W3C//DTD SVG 1.1//EN" "http://www.w3.org/Graphics/SVG/1.1/DTD/svg11.dtd">
<!-- Uploaded to: SVG Repo, www.svgrepo.com, Generator: SVG Repo Mixer Tools -->
<svg height="800px" width="800px" version="1.1" id="_x32_" xmlns="http://www.w3.org/2000/svg" xmlns:xlink="http://www.w3.org/1999/xlink" 
	 viewBox="0 0 512 512"  xml:space="preserve">
<style type="text/css">
	.st0{fill:#000000;}
</style>
<g>
	<polygon class="st0" points="61.549,168.34 0,168.34 0,487.291 61.549,487.291 61.549,420.143 450.442,420.143 450.442,487.291 
		511.992,487.291 511.992,420.143 512,420.143 512,347.397 61.549,347.397 	"/>
	<path class="st0" d="M459.656,226.389H237.82v87.434H512v-35.09C512,249.824,488.566,226.389,459.656,226.389z"/>
	<path class="st0" d="M124.656,124.07c27.434,0,49.68-22.246,49.68-49.681c0-27.434-22.246-49.68-49.68-49.68
		c-27.443,0-49.681,22.246-49.681,49.68C74.975,101.824,97.213,124.07,124.656,124.07z"/>
	<path class="st0" d="M140.213,149.619c-4.66-2.229-9.819-3.59-15.336-3.59h-6.082c-19.688,0-35.639,15.951-35.639,35.622v82.82
		c0,27.262,22.091,49.344,49.344,49.344h76.378V234.84h-48.361v-31.221l15.688,7.672c7.262,3.573,15.148,5.328,22.951,5.328
		c10.795,0,21.532-3.361,30.574-9.885l40.656-33.68c7.008-5.065,8.574-14.869,3.516-21.869c-5.066-7.025-14.852-8.59-21.869-3.533
		l-44.934,27.722c-2.369,1.705-5.148,2.557-7.942,2.565c-2.033,0-4.049-0.451-5.951-1.376l-51.565-26.418
		C141.205,149.93,140.68,149.807,140.213,149.619z"/>
	<polygon class="st0" points="307.754,102.077 295.066,95.324 270.131,142.233 282.82,148.987 	"/>
</g>
</svg>